<?xml version="1.0" encoding="UTF-8"?>
<!-- Created with Inkscape (http://www.inkscape.org/) -->
<svg width="9.1745mm" height="10.178mm" version="1.1" viewBox="0 0 9.1745 10.178" xml:space="preserve" xmlns="http://www.w3.org/2000/svg"><defs><clipPath id="clipPath38046"><path transform="matrix(.50054 0 0 .50054 2217.5 -1098.2)" d="m4439.8-1425.7-671.54 387.72-577.86-333.63a187.37 187.37 60 0 1-93.683-162.26v-662.93a7.49 7.49 120 0 1 3.745-6.4865l667.8-385.55 575.29 332.14a192.51 192.51 60 0 1 96.253 166.72z" fill="#fff"/></clipPath></defs><g transform="translate(-138.24 405.26)"><g transform="matrix(.028878 0 0 .028878 105.81 -400.81)"><rect x="1270" y="-142.75" width="25.895" height="5.4041" fill="#0f0"/><path transform="matrix(-.11658 .20508 -.20508 -.11658 1349.1 -962.42)" d="m4343.8-1370.3-479.06 276.59a193.06 193.06 2.522e-7 0 1-193.06 0l-481.33-277.9a187.37 187.37 60 0 1-93.683-162.26v-558.69a188.03 188.03 120 0 1 94.016-162.84l481.87-278.21a191.31 191.31 2.522e-7 0 1 191.31 0l479.63 276.92a192.51 192.51 60 0 1 96.253 166.72v553.49a191.9 191.9 120 0 1-95.952 166.19z" fill="#5dc0ea"/><path transform="matrix(-.11658 .20508 -.20508 -.11658 1349.1 -961.95)" d="m4343.8-1370.3-479.06 276.59a193.06 193.06 2.522e-7 0 1-193.06 0l-481.33-277.9a187.37 187.37 60 0 1-93.683-162.26v-558.69a188.03 188.03 120 0 1 94.016-162.84l481.87-278.21a191.31 191.31 2.522e-7 0 1 191.31 0l479.63 276.92a192.51 192.51 60 0 1 96.253 166.72v553.49a191.9 191.9 120 0 1-95.952 166.19z" clip-path="url(#clipPath38046)" fill="#1d3557"/><path transform="matrix(-.11658 .20508 -.20508 -.11658 1349.1 -994.17)" d="m4343.8-1370.3-479.06 276.59a193.06 193.06 2.522e-7 0 1-193.06 0l-481.33-277.9a187.37 187.37 60 0 1-93.683-162.26v-558.69a188.03 188.03 120 0 1 94.016-162.84l481.87-278.21a191.31 191.31 2.522e-7 0 1 191.31 0l479.63 276.92a192.51 192.51 60 0 1 96.253 166.72v553.49a191.9 191.9 120 0 1-95.952 166.19z" clip-path="url(#clipPath38046)" fill="#1d3557"/><path transform="matrix(-.058352 .10265 -.10265 -.058352 1315.3 -470.54)" d="m4343.8-1370.3-479.06 276.59a193.06 193.06 2.522e-7 0 1-193.06 0l-481.33-277.9a187.37 187.37 60 0 1-93.683-162.26v-558.69a188.03 188.03 120 0 1 94.016-162.84l481.87-278.21a191.31 191.31 2.522e-7 0 1 191.31 0l479.63 276.92a192.51 192.51 60 0 1 96.253 166.72v553.49a191.9 191.9 120 0 1-95.952 166.19z" fill="#fff" stroke="#fff"/></g></g></svg>
