<?xml version="1.0" encoding="UTF-8"?>
<!-- Created with Inkscape (http://www.inkscape.org/) -->
<svg width="77.8mm" height="20.804mm" version="1.1" viewBox="0 0 77.8 20.804" xml:space="preserve" xmlns="http://www.w3.org/2000/svg"><defs><clipPath id="clipPath38046"><path transform="matrix(.50054 0 0 .50054 2217.5 -1098.2)" d="m4439.8-1425.7-671.54 387.72-577.86-333.63a187.37 187.37 60 0 1-93.683-162.26v-662.93a7.49 7.49 120 0 1 3.745-6.4865l667.8-385.55 575.29 332.14a192.51 192.51 60 0 1 96.253 166.72z" fill="#fff"/></clipPath></defs><g transform="translate(-125 391.77)"><g transform="matrix(.87055 0 0 .87055 26.251 -68.091)" font-family="sans-serif" font-size="17.639px" stroke-width=".26458" word-spacing="0px"><text x="172.2197" y="-354.31924" fill="#5dc0ea" style="line-height:1.25" xml:space="preserve"><tspan x="172.2197" y="-354.31924" fill="#5dc0ea" font-family="Purpose" font-size="17.639px" stroke-width=".26458">BASE</tspan></text><text x="138.11804" y="-354.31924" style="line-height:1.25" xml:space="preserve"><tspan x="138.11804" y="-354.31924" fill="#ffffff" font-family="Purpose" font-size="17.639px" stroke-width=".26458">ORBIT</tspan></text></g><g transform="matrix(.059027 0 0 .059027 58.716 -382.67)"><rect x="1270" y="-142.75" width="25.895" height="5.4041" fill="#0f0"/><path transform="matrix(-.11658 .20508 -.20508 -.11658 1349.1 -962.42)" d="m4343.8-1370.3-479.06 276.59a193.06 193.06 2.522e-7 0 1-193.06 0l-481.33-277.9a187.37 187.37 60 0 1-93.683-162.26v-558.69a188.03 188.03 120 0 1 94.016-162.84l481.87-278.21a191.31 191.31 2.522e-7 0 1 191.31 0l479.63 276.92a192.51 192.51 60 0 1 96.253 166.72v553.49a191.9 191.9 120 0 1-95.952 166.19z" fill="#5dc0ea"/><path transform="matrix(-.11658 .20508 -.20508 -.11658 1349.1 -961.95)" d="m4343.8-1370.3-479.06 276.59a193.06 193.06 2.522e-7 0 1-193.06 0l-481.33-277.9a187.37 187.37 60 0 1-93.683-162.26v-558.69a188.03 188.03 120 0 1 94.016-162.84l481.87-278.21a191.31 191.31 2.522e-7 0 1 191.31 0l479.63 276.92a192.51 192.51 60 0 1 96.253 166.72v553.49a191.9 191.9 120 0 1-95.952 166.19z" clip-path="url(#clipPath38046)" fill="#1d3557"/><path transform="matrix(-.11658 .20508 -.20508 -.11658 1349.1 -994.17)" d="m4343.8-1370.3-479.06 276.59a193.06 193.06 2.522e-7 0 1-193.06 0l-481.33-277.9a187.37 187.37 60 0 1-93.683-162.26v-558.69a188.03 188.03 120 0 1 94.016-162.84l481.87-278.21a191.31 191.31 2.522e-7 0 1 191.31 0l479.63 276.92a192.51 192.51 60 0 1 96.253 166.72v553.49a191.9 191.9 120 0 1-95.952 166.19z" clip-path="url(#clipPath38046)" fill="#1d3557"/><path transform="matrix(-.058352 .10265 -.10265 -.058352 1315.3 -470.54)" d="m4343.8-1370.3-479.06 276.59a193.06 193.06 2.522e-7 0 1-193.06 0l-481.33-277.9a187.37 187.37 60 0 1-93.683-162.26v-558.69a188.03 188.03 120 0 1 94.016-162.84l481.87-278.21a191.31 191.31 2.522e-7 0 1 191.31 0l479.63 276.92a192.51 192.51 60 0 1 96.253 166.72v553.49a191.9 191.9 120 0 1-95.952 166.19z" fill="#fff" stroke="#fff"/></g></g></svg>
