<?xml version="1.0" encoding="UTF-8"?>
<!-- Created with Inkscape (http://www.inkscape.org/) -->
<svg width="5.556mm" height="5.556mm" version="1.1" viewBox="0 0 5.556 5.556" xml:space="preserve" xmlns="http://www.w3.org/2000/svg"><g transform="translate(-201.15 -48.827)"><path d="m203.93 54.383c1.5346 0 2.778-1.2434 2.778-2.778s-1.2434-2.778-2.778-2.778-2.778 1.2434-2.778 2.778 1.2434 2.778 2.778 2.778zm-1.5068-2.8382 2.6784-1.0327c0.12432-0.04491 0.23289 0.03033 0.19261 0.2183l2.5e-4 -2.3e-4 -0.45606 2.1486c-0.0338 0.15233-0.12432 0.18937-0.25095 0.1176l-0.69451-0.51185-0.33498 0.32271c-0.037 0.03704-0.0683 0.06829-0.14006 0.06829l0.0493-0.70677 1.2871-1.1628c0.056-0.04931-0.0125-0.07709-0.0864-0.02801l-1.5906 1.0015-0.68571-0.21391c-0.14885-0.04722-0.15209-0.14885 0.0315-0.22062z" fill="#fff" stroke-width=".2315"/></g></svg>
